<svg id="Capa_1" data-name="Capa 1" xmlns="http://www.w3.org/2000/svg" viewBox="0 0 80.45 28.61"><defs><style>.cls-1{fill:#fff;}</style></defs><title>logo_app_store</title><path class="cls-1" d="M16.26,10.82h1.5a0.18,0.18,0,1,0,0-.36h-1.5A0.18,0.18,0,0,0,16.26,10.82ZM17,24a0.78,0.78,0,1,0,.78.78A0.78,0.78,0,0,0,17,24Zm-3.84-.67h7.68V12H13.17V23.33ZM37.79,19.6a1.53,1.53,0,0,0-1,.36,1.7,1.7,0,0,0-.58,1,2,2,0,0,0-.07.45v1.11a1.77,1.77,0,0,0,.44,1.22,1.48,1.48,0,0,0,1.15.5,1.51,1.51,0,0,0,1.3-.64,2.82,2.82,0,0,0,.46-1.7,2.73,2.73,0,0,0-.44-1.6A1.52,1.52,0,0,0,37.79,19.6Zm26.92-.09a1.48,1.48,0,0,0-1.35.79,3,3,0,0,0-.4,1.59,2.94,2.94,0,0,0,.4,1.57,1.48,1.48,0,0,0,1.34.79A1.47,1.47,0,0,0,66,23.44a2.93,2.93,0,0,0,.41-1.58A3,3,0,0,0,66,20.3,1.47,1.47,0,0,0,64.71,19.51Zm-19.62.09a1.53,1.53,0,0,0-1,.36,1.71,1.71,0,0,0-.58,1,2,2,0,0,0-.07.45v1.11a1.77,1.77,0,0,0,.44,1.22,1.48,1.48,0,0,0,1.15.5,1.51,1.51,0,0,0,1.3-.64,2.82,2.82,0,0,0,.47-1.7,2.74,2.74,0,0,0-.44-1.6A1.53,1.53,0,0,0,45.09,19.6ZM29.84,17.22h0c-0.09.39-.24,1-0.44,1.74L28.6,21.37h2.47L30.3,19C30.22,18.71,30.06,18.13,29.84,17.22Zm46.07,2.21a1.41,1.41,0,0,0-1.17.6,2.2,2.2,0,0,0-.44,1.15h3.08a2,2,0,0,0-.29-1.13A1.3,1.3,0,0,0,75.91,19.44ZM36.35,12.88a0.6,0.6,0,0,0,0-.19V12.22c-0.61,0-1.19.12-1.19,0.64a0.45,0.45,0,0,0,.49.49A0.71,0.71,0,0,0,36.35,12.88Zm-8.05-2.15c-0.09-.29-0.17-0.61-0.24-0.89h0c-0.07.27-.15,0.6-0.22,0.89L27.45,11.9h1.21Zm49-.34a1.49,1.49,0,0,1,1.48,1.67,2.06,2.06,0,0,1,0,.36H76.43a0.93,0.93,0,0,0,1.05.88,2.75,2.75,0,0,0,.95-0.15l0.13,0.59a3.08,3.08,0,0,1-1.19.22,1.62,1.62,0,0,1-1.76-1.73A1.69,1.69,0,0,1,77.27,10.39Zm-13.71.08,0,0.51h0a1.26,1.26,0,0,1,2.31.88v2H65.07V12a0.71,0.71,0,0,0-.65-0.86,0.73,0.73,0,0,0-.67.51,0.82,0.82,0,0,0,0,.27v2H62.84v-2.4c0-.39,0-0.72,0-1h0.75Zm-9.07-.08A1.49,1.49,0,0,1,56,12.06a2.17,2.17,0,0,1,0,.36H53.64a0.93,0.93,0,0,0,1.05.88,2.74,2.74,0,0,0,.95-0.15l0.13,0.59a3.08,3.08,0,0,1-1.2.22,1.62,1.62,0,0,1-1.76-1.73A1.69,1.69,0,0,1,54.48,10.39ZM50.94,8.91h0.86v5H50.94v-5ZM44.09,11a1.8,1.8,0,0,0-.92.25L43,10.7a2.46,2.46,0,0,1,1.24-.3,1.28,1.28,0,0,1,1.41,1.45v1.23a4.73,4.73,0,0,0,.06.82H44.93l-0.06-.38h0a1.25,1.25,0,0,1-1,.46,1,1,0,0,1-1.08-1c0-.86.77-1.3,2-1.29V11.6A0.58,0.58,0,0,0,44.09,11ZM39,9a0.47,0.47,0,1,1-.48.47A0.46,0.46,0,0,1,39,9Zm0.43,1.43v3.42H38.55V10.47h0.86ZM27.52,9.16h1.1l1.54,4.74H29.23L28.8,12.55h-1.5L26.9,13.89H26Zm-5.75,15.7a1.51,1.51,0,0,1-1.51,1.51H13.77a1.51,1.51,0,0,1-1.52-1.51V10.44a1.52,1.52,0,0,1,1.52-1.51h6.49a1.51,1.51,0,0,1,1.51,1.51V24.86ZM32.2,25.21l-0.86-2.7h-3l-0.82,2.7H26L29,16h1.83l3,9.21H32.2Zm0.34-11.31H31.69l-1.27-3.42h0.93l0.55,1.74a8.85,8.85,0,0,1,.23.86h0c0.06-.28.14-0.55,0.23-0.86l0.55-1.74h0.91ZM34.31,13c0-.86.77-1.3,2-1.29V11.6a0.58,0.58,0,0,0-.7-0.6,1.8,1.8,0,0,0-.92.25l-0.17-.56a2.45,2.45,0,0,1,1.24-.3,1.28,1.28,0,0,1,1.41,1.45v1.23a4.64,4.64,0,0,0,.06.82H36.48l-0.06-.38h0a1.25,1.25,0,0,1-1,.46A1,1,0,0,1,34.31,13Zm5.78,11.53a2.7,2.7,0,0,1-2,.87,2,2,0,0,1-1.9-.94V27.9H34.68V20.75q0-1.07-.06-2.18h1.3L36,19.62h0a2.63,2.63,0,0,1,4.21-.26A3.66,3.66,0,0,1,41,21.8,3.75,3.75,0,0,1,40.09,24.48Zm1.54-10.59H40.77v-5h0.86v5Zm5.76,10.59a2.7,2.7,0,0,1-2,.87,2,2,0,0,1-1.9-.94V27.9H42V20.75c0-.71,0-1.44-0.05-2.18h1.29l0.08,1.05h0a2.63,2.63,0,0,1,4.2-.26,3.65,3.65,0,0,1,.79,2.45A3.75,3.75,0,0,1,47.39,24.48ZM48.4,14a1.17,1.17,0,0,1-1.08-.59h0l0,0.51H46.53c0-.23,0-0.61,0-1v-4h0.86v2h0a1.24,1.24,0,0,1,1.1-.55A1.52,1.52,0,0,1,50,12.13,1.64,1.64,0,0,1,48.4,14Zm7.43,10.56a3.64,3.64,0,0,1-2.51.81,4.4,4.4,0,0,1-2.39-.57l0.34-1.23a4.13,4.13,0,0,0,2.13.57,2,2,0,0,0,1.3-.37,1.23,1.23,0,0,0,.46-1,1.29,1.29,0,0,0-.38-0.94,3.59,3.59,0,0,0-1.27-.71q-2.42-.9-2.42-2.64A2.32,2.32,0,0,1,52,16.58a3.38,3.38,0,0,1,2.26-.72,4.5,4.5,0,0,1,2.09.44l-0.37,1.2a3.65,3.65,0,0,0-1.77-.42,1.83,1.83,0,0,0-1.22.38,1.11,1.11,0,0,0-.37.84,1.14,1.14,0,0,0,.42.9,4.81,4.81,0,0,0,1.34.71A4.5,4.5,0,0,1,56.09,21a2.34,2.34,0,0,1,.56,1.6A2.46,2.46,0,0,1,55.84,24.54ZM61,19.67H59.41V22.9c0,0.82.29,1.23,0.86,1.23a2.68,2.68,0,0,0,.66-0.06l0,1.12a3.33,3.33,0,0,1-1.15.16,1.76,1.76,0,0,1-1.37-.53A2.59,2.59,0,0,1,58,23V19.67H57V18.56h1V17.35l1.45-.44v1.65H61v1.11ZM60.21,14a1.65,1.65,0,0,1-1.71-1.76,1.69,1.69,0,0,1,1.77-1.81A1.64,1.64,0,0,1,62,12.15,1.7,1.7,0,0,1,60.21,14Zm6.89,10.38a3.13,3.13,0,0,1-2.43,1,3,3,0,0,1-2.33-1,3.54,3.54,0,0,1-.87-2.45,3.61,3.61,0,0,1,.9-2.53,3.09,3.09,0,0,1,2.41-1,3,3,0,0,1,2.35,1A3.51,3.51,0,0,1,68,21.83,3.65,3.65,0,0,1,67.09,24.35Zm1.53-13.88H69.1V9.83L70,9.59v0.88h0.82v0.65H70v1.51c0,0.42.11,0.63,0.44,0.63a1.16,1.16,0,0,0,.34,0v0.65a1.91,1.91,0,0,1-.62.09,1,1,0,0,1-.75-0.28,1.35,1.35,0,0,1-.27-1V11.12H68.62V10.47Zm3.79,9.39a2.64,2.64,0,0,0-.46,0,1.4,1.4,0,0,0-1.2.59,2.19,2.19,0,0,0-.37,1.31v3.49H68.9V20.65q0-1.14,0-2.09h1.29l0.05,1.27h0A2.24,2.24,0,0,1,71,18.78,1.77,1.77,0,0,1,72,18.43l0.37,0v1.41Zm0.22-8v2.05H71.77v-5h0.86v2h0a1.14,1.14,0,0,1,.43-0.39,1.22,1.22,0,0,1,.6-0.16,1.25,1.25,0,0,1,1.2,1.48v2H74V12a0.71,0.71,0,0,0-.66-0.87,0.72,0.72,0,0,0-.67.49A0.77,0.77,0,0,0,72.63,11.84Zm6.09,10.4H74.3a1.92,1.92,0,0,0,.64,1.5,2.18,2.18,0,0,0,1.45.47,4.84,4.84,0,0,0,1.79-.32l0.23,1a5.52,5.52,0,0,1-2.23.41,3.22,3.22,0,0,1-2.42-.91A3.35,3.35,0,0,1,72.87,22a3.82,3.82,0,0,1,.82-2.5A2.84,2.84,0,0,1,76,18.41a2.47,2.47,0,0,1,2.17,1.06,3.6,3.6,0,0,1,.59,2.09A3.74,3.74,0,0,1,78.73,22.24ZM48.22,11.07a0.8,0.8,0,0,0-.76.63,1,1,0,0,0,0,.22v0.55a1,1,0,0,0,0,.21,0.79,0.79,0,0,0,.77.6,0.94,0.94,0,0,0,.87-1.12A0.94,0.94,0,0,0,48.22,11.07ZM54.44,11a0.84,0.84,0,0,0-.79.84h1.5A0.74,0.74,0,0,0,54.44,11Zm5.81,0a1,1,0,0,0-.86,1.16,0.89,0.89,0,1,0,1.69,0A1,1,0,0,0,60.24,11ZM43.61,12.86a0.45,0.45,0,0,0,.49.49,0.71,0.71,0,0,0,.68-0.47,0.6,0.6,0,0,0,0-.19V12.22C44.2,12.21,43.61,12.34,43.61,12.86ZM77.22,11a0.85,0.85,0,0,0-.79.84h1.5A0.74,0.74,0,0,0,77.22,11Z" transform="translate(-5.29 -3.34)"/><path class="cls-1" d="M81.88,32H9.15A3.86,3.86,0,0,1,5.29,28.1V7.2A3.86,3.86,0,0,1,9.15,3.34H81.88A3.86,3.86,0,0,1,85.74,7.2V28.1A3.86,3.86,0,0,1,81.88,32ZM9.15,4.34A2.86,2.86,0,0,0,6.29,7.2V28.1A2.86,2.86,0,0,0,9.15,31H81.88a2.86,2.86,0,0,0,2.86-2.85V7.2a2.86,2.86,0,0,0-2.86-2.86H9.15Z" transform="translate(-5.29 -3.34)"/></svg>