<svg id="Capa_1" data-name="Capa 1" xmlns="http://www.w3.org/2000/svg" viewBox="0 0 85.34 28.59"><defs><style>.cls-1{fill:#fff;}</style></defs><title>logo_play_store</title><path class="cls-1" d="M83.73,31.8H6.84a4.23,4.23,0,0,1-4.23-4.23V7.44A4.23,4.23,0,0,1,6.84,3.21H83.73A4.23,4.23,0,0,1,88,7.44V27.57A4.23,4.23,0,0,1,83.73,31.8ZM6.84,4.21A3.23,3.23,0,0,0,3.62,7.44V27.57A3.23,3.23,0,0,0,6.84,30.8H83.73A3.23,3.23,0,0,0,87,27.57V7.44a3.23,3.23,0,0,0-3.23-3.23H6.84Z" transform="translate(-2.62 -3.21)"/><path class="cls-1" d="M31,11.55H30.41a3.73,3.73,0,0,0-.16-0.66H29.43a3.48,3.48,0,0,0-.17.66H28.73a12,12,0,0,1,.41-1.13,8.87,8.87,0,0,0,.42-1.17h0.67a9.69,9.69,0,0,0,.38,1.16A10.22,10.22,0,0,1,31,11.55Zm-0.82-1a9.84,9.84,0,0,1-.3-1h0a10.24,10.24,0,0,1-.31,1h0.65Z" transform="translate(-2.62 -3.21)"/><path class="cls-1" d="M33.26,11.55H32.82a4.29,4.29,0,0,0-.49-0.77,4.21,4.21,0,0,1-.58-1h0a6.29,6.29,0,0,1,0,.7q0,0.44,0,1.07H31.36q0-.55,0-1.21c0-.43,0-0.8,0-1.1h0.53a3.36,3.36,0,0,0,.44.75,4.46,4.46,0,0,1,.54.94h0a6.47,6.47,0,0,1,0-.71c0-.32,0-0.65,0-1h0.44c0,0.29,0,.66,0,1.1S33.24,11.19,33.26,11.55Z" transform="translate(-2.62 -3.21)"/><path class="cls-1" d="M35.83,10.32a1.3,1.3,0,0,1-.32.88,1.13,1.13,0,0,1-.9.38l-0.72,0q0-.53,0-1.21t0-1.1h0.73a1.2,1.2,0,0,1,.93.32A1.11,1.11,0,0,1,35.83,10.32Zm-0.48.08a0.85,0.85,0,0,0-.2-0.57,0.76,0.76,0,0,0-.61-0.23l-0.21,0c0,0.24,0,.48,0,0.74s0,0.56,0,.84l0.23,0A0.66,0.66,0,0,0,35.16,11,0.91,0.91,0,0,0,35.34,10.4Z" transform="translate(-2.62 -3.21)"/><path class="cls-1" d="M38.19,11.55H37.67a3.5,3.5,0,0,0-.31-0.77A0.42,0.42,0,0,0,37,10.63H36.8q0,0.46,0,.92H36.33q0-.53,0-1.21t0-1.1h0.84q0.81,0,.81.56a0.62,0.62,0,0,1-.46.62v0a0.55,0.55,0,0,1,.31.28A5.83,5.83,0,0,1,38.19,11.55ZM37.53,9.92a0.36,0.36,0,0,0-.45-0.35l-0.29,0q0,0.28,0,.72H37C37.34,10.32,37.53,10.19,37.53,9.92Z" transform="translate(-2.62 -3.21)"/><path class="cls-1" d="M40.73,10.36a1.27,1.27,0,0,1-.33.9,1.08,1.08,0,0,1-.82.36,1,1,0,0,1-.78-0.33,1.16,1.16,0,0,1-.32-0.84,1.27,1.27,0,0,1,.33-0.9,1.08,1.08,0,0,1,.82-0.36,1,1,0,0,1,.78.33A1.16,1.16,0,0,1,40.73,10.36Zm-0.49.05a0.91,0.91,0,0,0-.19-0.6,0.58,0.58,0,0,0-.47-0.23,0.55,0.55,0,0,0-.44.23,0.93,0.93,0,0,0-.18.59,0.91,0.91,0,0,0,.19.6,0.58,0.58,0,0,0,.47.23A0.54,0.54,0,0,0,40.06,11,0.93,0.93,0,0,0,40.24,10.41Z" transform="translate(-2.62 -3.21)"/><path class="cls-1" d="M41.74,11.55h-0.5q0-.55,0-1.21c0-.43,0-0.8,0-1.1h0.5c0,0.3,0,.67,0,1.1S41.72,11.2,41.74,11.55Z" transform="translate(-2.62 -3.21)"/><path class="cls-1" d="M44.3,10.32a1.3,1.3,0,0,1-.32.88,1.13,1.13,0,0,1-.9.38l-0.72,0q0-.53,0-1.21t0-1.1h0.73a1.19,1.19,0,0,1,.93.32A1.1,1.1,0,0,1,44.3,10.32Zm-0.48.08a0.86,0.86,0,0,0-.2-0.57A0.76,0.76,0,0,0,43,9.59l-0.21,0c0,0.24,0,.48,0,0.74s0,0.56,0,.84l0.23,0A0.67,0.67,0,0,0,43.64,11,0.91,0.91,0,0,0,43.82,10.4Z" transform="translate(-2.62 -3.21)"/><path class="cls-1" d="M47.71,11.55H47.14A3.78,3.78,0,0,0,47,10.89H46.16a3.37,3.37,0,0,0-.17.66H45.46a11.9,11.9,0,0,1,.41-1.13,8.93,8.93,0,0,0,.41-1.17H47a9.69,9.69,0,0,0,.38,1.16A10.12,10.12,0,0,1,47.71,11.55Zm-0.82-1a9.84,9.84,0,0,1-.3-1h0s-0.1.38-.31,1h0.65Z" transform="translate(-2.62 -3.21)"/><path class="cls-1" d="M49.78,9.85a0.69,0.69,0,0,1-.32.63,1.4,1.4,0,0,1-.77.2H48.57c0,0.22,0,.52,0,0.88h-0.5q0-.51,0-1.21c0-.42,0-0.79,0-1.1H49a1,1,0,0,1,.57.15A0.52,0.52,0,0,1,49.78,9.85Zm-0.46.1q0-.38-0.5-0.38l-0.27,0c0,0.22,0,.48,0,0.76h0.1C49.1,10.36,49.32,10.22,49.32,9.95Z" transform="translate(-2.62 -3.21)"/><path class="cls-1" d="M51.9,9.85a0.69,0.69,0,0,1-.32.63,1.41,1.41,0,0,1-.77.2H50.7c0,0.22,0,.52,0,0.88h-0.5c0-.34,0-0.74,0-1.21s0-.79,0-1.1H51.1a1,1,0,0,1,.57.15A0.52,0.52,0,0,1,51.9,9.85Zm-0.46.1q0-.38-0.5-0.38l-0.27,0c0,0.22,0,.48,0,0.76h0.1C51.23,10.36,51.44,10.22,51.44,9.95Z" transform="translate(-2.62 -3.21)"/><path class="cls-1" d="M55.37,10.36a1.27,1.27,0,0,1-.33.9,1.08,1.08,0,0,1-.82.36,1,1,0,0,1-.78-0.33,1.16,1.16,0,0,1-.32-0.84,1.27,1.27,0,0,1,.33-0.9,1.08,1.08,0,0,1,.82-0.36,1,1,0,0,1,.78.33A1.15,1.15,0,0,1,55.37,10.36Zm-0.49.05a0.92,0.92,0,0,0-.19-0.6,0.58,0.58,0,0,0-.47-0.23,0.54,0.54,0,0,0-.44.23,1,1,0,0,0,0,1.19,0.58,0.58,0,0,0,.47.23A0.54,0.54,0,0,0,54.7,11,0.93,0.93,0,0,0,54.88,10.41Z" transform="translate(-2.62 -3.21)"/><path class="cls-1" d="M57.77,11.55H57.34a4.23,4.23,0,0,0-.49-0.77,4.14,4.14,0,0,1-.58-1h0a6.06,6.06,0,0,1,0,.7c0,0.29,0,.65,0,1.07H55.87q0-.55,0-1.21c0-.43,0-0.8,0-1.1H56.4a3.35,3.35,0,0,0,.44.75,4.41,4.41,0,0,1,.54.94h0a6.72,6.72,0,0,1,0-.71c0-.32,0-0.65,0-1h0.44c0,0.29,0,.66,0,1.1S57.76,11.19,57.77,11.55Z" transform="translate(-2.62 -3.21)"/><path class="cls-1" d="M36.88,18.94a3.7,3.7,0,0,1-1,2.74,4,4,0,0,1-3,1.21,4.22,4.22,0,0,1-4.26-4.28,4.22,4.22,0,0,1,4.26-4.28,4.23,4.23,0,0,1,1.68.34,3.37,3.37,0,0,1,1.28.92l-0.72.72a2.77,2.77,0,0,0-2.24-1,3.17,3.17,0,0,0-3.18,3.27A3.22,3.22,0,0,0,35.14,21a2.57,2.57,0,0,0,.69-1.66h-3v-1h4A3.52,3.52,0,0,1,36.88,18.94Z" transform="translate(-2.62 -3.21)"/><path class="cls-1" d="M38.12,17.77a2.94,2.94,0,0,1,4.14,0,3.21,3.21,0,0,1,0,4.27,2.94,2.94,0,0,1-4.14,0A3.21,3.21,0,0,1,38.12,17.77Zm0.78,3.61a1.77,1.77,0,0,0,2.58,0,2.26,2.26,0,0,0,0-2.94,1.77,1.77,0,0,0-2.58,0A2.26,2.26,0,0,0,38.91,21.38Z" transform="translate(-2.62 -3.21)"/><path class="cls-1" d="M44.25,17.77a2.94,2.94,0,0,1,4.14,0,3.21,3.21,0,0,1,0,4.27,2.94,2.94,0,0,1-4.14,0A3.21,3.21,0,0,1,44.25,17.77ZM45,21.38a1.77,1.77,0,0,0,2.58,0,2.26,2.26,0,0,0,0-2.94,1.77,1.77,0,0,0-2.58,0A2.26,2.26,0,0,0,45,21.38Z" transform="translate(-2.62 -3.21)"/><path class="cls-1" d="M52.32,25.36a2.54,2.54,0,0,1-1.63-.5,2.93,2.93,0,0,1-.9-1.14l1-.4a1.57,1.57,0,0,0,.59.77,1.63,1.63,0,0,0,1,.31,1.8,1.8,0,0,0,1.37-.52,2,2,0,0,0,.5-1.41V21.93h0a2.15,2.15,0,0,1-.78.69,2.33,2.33,0,0,1-1.13.27A2.47,2.47,0,0,1,50.35,22a3.27,3.27,0,0,1,0-4.26,2.47,2.47,0,0,1,1.88-.86,2.33,2.33,0,0,1,1.13.27,2.13,2.13,0,0,1,.78.69h0V17.1h1v5.32a2.79,2.79,0,0,1-.84,2.19A2.94,2.94,0,0,1,52.32,25.36Zm0.08-3.43a1.68,1.68,0,0,0,1.26-.55,2.06,2.06,0,0,0,.52-1.48,2.06,2.06,0,0,0-.52-1.48,1.72,1.72,0,0,0-2.52,0,2.31,2.31,0,0,0,0,2.94A1.67,1.67,0,0,0,52.4,21.93Z" transform="translate(-2.62 -3.21)"/><path class="cls-1" d="M57.24,22.71H56.19v-8.2h1.05v8.2Z" transform="translate(-2.62 -3.21)"/><path class="cls-1" d="M60.72,22.89A2.7,2.7,0,0,1,58.65,22a3,3,0,0,1-.8-2.14,3.09,3.09,0,0,1,.77-2.11,2.51,2.51,0,0,1,2-.88,2.59,2.59,0,0,1,2,.81,3.08,3.08,0,0,1,.75,2.17V20.1H58.91a1.9,1.9,0,0,0,.57,1.34,1.72,1.72,0,0,0,1.22.49,1.51,1.51,0,0,0,1.53-1l0.94,0.39a2.51,2.51,0,0,1-.9,1.09A2.64,2.64,0,0,1,60.72,22.89Zm1.51-3.66a1.5,1.5,0,0,0-.44-0.92,1.58,1.58,0,0,0-1.21-.43,1.51,1.51,0,0,0-1,.37,1.87,1.87,0,0,0-.59,1h3.25Z" transform="translate(-2.62 -3.21)"/><path class="cls-1" d="M67.5,22.71H66.44v-8.2h2.79a2.6,2.6,0,0,1,1.8.69,2.38,2.38,0,0,1,0,3.49,2.59,2.59,0,0,1-1.8.69H67.5v3.32Zm0-4.33h1.76a1.36,1.36,0,0,0,1.06-.45,1.41,1.41,0,0,0,0-2,1.36,1.36,0,0,0-1.06-.45H67.5v2.86Z" transform="translate(-2.62 -3.21)"/><path class="cls-1" d="M73.54,22.71H72.49v-8.2h1.05v8.2Z" transform="translate(-2.62 -3.21)"/><path class="cls-1" d="M76.25,22.89a2.21,2.21,0,0,1-1.49-.51,1.71,1.71,0,0,1-.6-1.36,1.68,1.68,0,0,1,.71-1.44,2.87,2.87,0,0,1,1.75-.52,3,3,0,0,1,1.52.34V19.24a1.25,1.25,0,0,0-.42-1,1.52,1.52,0,0,0-1-.37,1.62,1.62,0,0,0-.83.22,1.13,1.13,0,0,0-.51.6l-1-.41a2.19,2.19,0,0,1,.77-0.93,2.45,2.45,0,0,1,1.51-.43,2.6,2.6,0,0,1,1.79.63,2.25,2.25,0,0,1,.71,1.77v3.39h-1V21.93h0A2.06,2.06,0,0,1,76.25,22.89Zm0.17-1a1.72,1.72,0,0,0,1.19-.49,1.5,1.5,0,0,0,.53-1.15,2.07,2.07,0,0,0-1.34-.37,1.75,1.75,0,0,0-1.16.33,1,1,0,0,0-.39.78,0.75,0.75,0,0,0,.36.65A1.41,1.41,0,0,0,76.42,21.93Z" transform="translate(-2.62 -3.21)"/><path class="cls-1" d="M81.44,25.18H80.35l1.3-2.83L79.34,17.1h1.14l1.67,4h0l1.63-4H85Z" transform="translate(-2.62 -3.21)"/><path class="cls-1" d="M8.95,18.47q0-3.93,0-7.85a1.18,1.18,0,0,1,.29-0.86c0.09-.09.15-0.12,0.26,0l5.29,5.38,3.43,3.48c0.11,0.11.12,0.17,0,.29Q14,23.09,9.82,27.29a0.29,0.29,0,0,1-.46,0,1.07,1.07,0,0,1-.42-0.91q0-2.33,0-4.65V18.47h0Z" transform="translate(-2.62 -3.21)"/><path class="cls-1" d="M10,9.46a1,1,0,0,1,.51.14l10.76,6c0.16,0.09.16,0.14,0,.27l-2.39,2.38c-0.09.09-.14,0.14-0.25,0L10,9.58Z" transform="translate(-2.62 -3.21)"/><path class="cls-1" d="M10.76,27.23q3.9-3.94,7.8-7.9c0.16-.16.24-0.14,0.38,0q1,1,2,2c0.12,0.12.13,0.17,0,.25l-10,5.5Z" transform="translate(-2.62 -3.21)"/><path class="cls-1" d="M25.62,18.54a0.82,0.82,0,0,1-.36.66,4.35,4.35,0,0,1-.5.3l-3,1.67a0.23,0.23,0,0,1-.33,0Q20.33,20,19.24,18.93a0.15,0.15,0,0,1,0-.27l2.53-2.52a0.2,0.2,0,0,1,.29,0l3,1.68A0.92,0.92,0,0,1,25.62,18.54Z" transform="translate(-2.62 -3.21)"/></svg>