<svg id="Capa_1" data-name="Capa 1" xmlns="http://www.w3.org/2000/svg" viewBox="0 0 181.2 134.91"><defs><style>.cls-1{fill:#FFF;}</style></defs><title>logo_rhemo</title><path class="cls-1" d="M15.21,158.4l-0.41,0H10.75v8.28H9.4V142.8h6.27a7.9,7.9,0,0,1,4.65,2.28,7.82,7.82,0,0,1,0,11,7.57,7.57,0,0,1-3.63,2.08l5.51,8.5H20.54Zm-4.46-14.23V157h4.06a6.45,6.45,0,0,0,6.44-6.46A6.16,6.16,0,0,0,19.36,146a6.23,6.23,0,0,0-4.55-1.88H10.75Z" transform="translate(-9.4 -32.08)"/><path class="cls-1" d="M47.43,155.42V166.7H46.08V142.8h1.35v11.27H59.67V142.8H61v23.9H59.67V155.42H47.43Z" transform="translate(-9.4 -32.08)"/><path class="cls-1" d="M97.22,142.8v1.35H86.62v9.92h10.6v1.35H86.62v9.92h10.6v1.35h-12V142.8h12Z" transform="translate(-9.4 -32.08)"/><path class="cls-1" d="M142.69,142.8v23.9h-1.35V144.25l-8.4,11-0.85,1.11-0.86-1.11-8.4-11V166.7h-1.35V142.8h2l8.65,11.32,8.64-11.32h2Z" transform="translate(-9.4 -32.08)"/><path class="cls-1" d="M187,146.05a12.26,12.26,0,1,1-8.68-3.59A11.81,11.81,0,0,1,187,146.05Zm-8.68-2.22A10.91,10.91,0,1,0,186,147,10.48,10.48,0,0,0,178.33,143.83Z" transform="translate(-9.4 -32.08)"/><path class="cls-1" d="M119.58,84.14c-5.31-9.78-11.06-12.74-14-14.18,6.66-.81,11.34-4.25,14.78-7.54a15.94,15.94,0,0,0,5.15-11.94,14.76,14.76,0,0,0-3.94-10.31A22.19,22.19,0,0,0,111.19,34,60,60,0,0,0,94.6,32.08c-1.53,0-2.9,0-4.84.06L62.63,40.82v5.92h1.44a13.94,13.94,0,0,1,6.5,1.43c3.49,1.77,7.66,4.82,11.09,2,0.28-.27.15-0.12,0,0-1.85,1.76-8.91,9.19-8.91,19.91V89.63q0,4.85-1.62,6.85t-7.06,2H62.63v5.92h39V102H100.3c-3.52,0-7.55-1.5-8.69-2.79s-1.7-6.24-1.7-9.55V70h2.26a7.44,7.44,0,0,1,4.26,1,36.44,36.44,0,0,1,5,5.42q3.63,4.45,7,9.28Q119,100.81,124,104.38h13.33V102C128.77,101.33,124.53,93.25,119.58,84.14ZM97.49,67.26c-2.6.13-5.12,0.23-7.57,0.3l0-32.63c1.44-.11,2.73-0.17,3.87-0.17q12.62,0,16.38,4.52t3.76,12a20.78,20.78,0,0,1-1.1,7.26,11.44,11.44,0,0,1-8,7.52A30.56,30.56,0,0,1,97.49,67.26Z" transform="translate(-9.4 -32.08)"/></svg>